<?xml version="1.0" standalone="no"?>
<!DOCTYPE svg PUBLIC "-//W3C//DTD SVG 20010904//EN"
 "http://www.w3.org/TR/2001/REC-SVG-20010904/DTD/svg10.dtd">
<svg version="1.0" xmlns="http://www.w3.org/2000/svg"
 width="1055.000000pt" height="1055.000000pt" viewBox="0 0 1055.000000 1055.000000"
 preserveAspectRatio="xMidYMid meet">
<metadata>
Created by potrace 1.14, written by Peter Selinger 2001-2017
</metadata>
<g transform="translate(0.000000,1055.000000) scale(0.100000,-0.100000)"
fill="#000000" stroke="none">
<path d="M1750 6961 c0 -3 278 -283 618 -622 l617 -616 487 1 487 1 -27 -30
c-15 -16 -34 -37 -42 -46 -8 -9 -53 -58 -100 -110 -83 -91 -141 -155 -265
-291 -33 -36 -96 -105 -140 -153 -44 -49 -89 -98 -100 -109 -11 -12 -47 -51
-79 -86 l-60 -65 -944 -1 -944 -1 -621 -621 -622 -622 1870 0 1870 0 624 624
623 624 707 0 c388 1 713 1 721 1 8 1 -464 480 -1049 1065 l-1063 1063 -1284
0 c-706 0 -1284 -2 -1284 -6z"/>
<path d="M5120 6785 c-99 -99 -180 -183 -180 -186 0 -6 2833 -2839 2960 -2961
l56 -53 927 0 c510 0 927 3 927 6 0 3 -756 763 -1679 1689 l-1680 1682 -575 1
-576 2 -180 -180z"/>
<path d="M6720 6960 c0 -3 278 -283 618 -623 l617 -617 394 0 394 0 620 620
c551 551 616 620 591 621 -188 3 -3234 3 -3234 -1z"/>
<path d="M5140 4680 c-4 -3 -97 -90 -205 -195 -211 -202 -208 -200 -511 -490
-109 -104 -249 -240 -312 -300 l-114 -110 1859 1 c1022 1 1860 2 1863 3 3 1
-20 24 -50 52 -30 28 -100 94 -155 147 -122 117 -407 389 -490 467 -33 31
-131 125 -218 208 -87 84 -176 168 -198 187 l-39 35 -711 0 c-391 0 -714 -2
-719 -5z"/>
</g>
</svg>
